{
  "accessors": [
    {
      "bufferView": 2,
      "componentType": 5126,
      "count": 2978,
      "max": [
        19.932579040527344,
        19.931962966918945,
        4.197865962982178
      ],
      "min": [
        -19.932174682617188,
        -19.932790756225586,
        -5.888816833496094
      ],
      "type": "VEC3"
    },
    {
      "bufferView": 2,
      "byteOffset": 35736,
      "componentType": 5126,
      "count": 2978,
      "type": "VEC3"
    },
    {
      "bufferView": 1,
      "componentType": 5126,
      "count": 2978,
      "type": "VEC2"
    },
    {
      "bufferView": 0,
      "componentType": 5125,
      "count": 8508,
      "type": "SCALAR"
    },
    {
      "bufferView": 2,
      "byteOffset": 71472,
      "componentType": 5126,
      "count": 23067,
      "max": [
        23.508041381835938,
        23.507965087890625,
        3.9722509384155273
      ],
      "min": [
        -23.507841110229492,
        -23.507863998413086,
        -4.690431594848633
      ],
      "type": "VEC3"
    },
    {
      "bufferView": 2,
      "byteOffset": 348276,
      "componentType": 5126,
      "count": 23067,
      "type": "VEC3"
    },
    {
      "bufferView": 1,
      "byteOffset": 23824,
      "componentType": 5126,
      "count": 23067,
      "type": "VEC2"
    },
    {
      "bufferView": 0,
      "byteOffset": 34032,
      "componentType": 5125,
      "count": 27012,
      "type": "SCALAR"
    },
    {
      "bufferView": 2,
      "byteOffset": 625080,
      "componentType": 5126,
      "count": 3076,
      "max": [
        19.932579040527344,
        19.931962966918945,
        4.197865962982178
      ],
      "min": [
        -19.932174682617188,
        -19.932790756225586,
        -6.452368259429932
      ],
      "type": "VEC3"
    },
    {
      "bufferView": 2,
      "byteOffset": 661992,
      "componentType": 5126,
      "count": 3076,
      "type": "VEC3"
    },
    {
      "bufferView": 1,
      "byteOffset": 208360,
      "componentType": 5126,
      "count": 3076,
      "type": "VEC2"
    },
    {
      "bufferView": 0,
      "byteOffset": 142080,
      "componentType": 5125,
      "count": 8676,
      "type": "SCALAR"
    },
    {
      "bufferView": 2,
      "byteOffset": 698904,
      "componentType": 5126,
      "count": 15581,
      "max": [
        23.508041381835938,
        23.507965087890625,
        1.3782529830932617
      ],
      "min": [
        -23.507841110229492,
        -23.507863998413086,
        -4.727061748504639
      ],
      "type": "VEC3"
    },
    {
      "bufferView": 2,
      "byteOffset": 885876,
      "componentType": 5126,
      "count": 15581,
      "type": "VEC3"
    },
    {
      "bufferView": 1,
      "byteOffset": 232968,
      "componentType": 5126,
      "count": 15581,
      "type": "VEC2"
    },
    {
      "bufferView": 0,
      "byteOffset": 176784,
      "componentType": 5125,
      "count": 17412,
      "type": "SCALAR"
    },
    {
      "bufferView": 2,
      "byteOffset": 1072848,
      "componentType": 5126,
      "count": 4256,
      "max": [
        2.8301734924316406,
        35.32128143310547,
        9.210497856140137
      ],
      "min": [
        -82.82546997070313,
        -11.092391967773438,
        -3.875159502029419
      ],
      "type": "VEC3"
    },
    {
      "bufferView": 2,
      "byteOffset": 1123920,
      "componentType": 5126,
      "count": 4256,
      "type": "VEC3"
    },
    {
      "bufferView": 1,
      "byteOffset": 357616,
      "componentType": 5126,
      "count": 4256,
      "type": "VEC2"
    },
    {
      "bufferView": 0,
      "byteOffset": 246432,
      "componentType": 5125,
      "count": 11676,
      "type": "SCALAR"
    },
    {
      "bufferView": 2,
      "byteOffset": 1174992,
      "componentType": 5126,
      "count": 836,
      "max": [
        -14.419248580932617,
        38.04045104980469,
        8.925000190734863
      ],
      "min": [
        -80.27989196777344,
        -7.677778244018555,
        -3.5896613597869873
      ],
      "type": "VEC3"
    },
    {
      "bufferView": 2,
      "byteOffset": 1185024,
      "componentType": 5126,
      "count": 836,
      "type": "VEC3"
    },
    {
      "bufferView": 1,
      "byteOffset": 391664,
      "componentType": 5126,
      "count": 836,
      "type": "VEC2"
    },
    {
      "bufferView": 0,
      "byteOffset": 293136,
      "componentType": 5125,
      "count": 2880,
      "type": "SCALAR"
    },
    {
      "bufferView": 2,
      "byteOffset": 1195056,
      "componentType": 5126,
      "count": 254,
      "max": [
        3.691426992416382,
        0.9829477667808533,
        7.152892589569092
      ],
      "min": [
        -3.7665133476257324,
        -0.9829474091529846,
        0.0
      ],
      "type": "VEC3"
    },
    {
      "bufferView": 2,
      "byteOffset": 1198104,
      "componentType": 5126,
      "count": 254,
      "type": "VEC3"
    },
    {
      "bufferView": 1,
      "byteOffset": 398352,
      "componentType": 5126,
      "count": 254,
      "type": "VEC2"
    },
    {
      "bufferView": 0,
      "byteOffset": 304656,
      "componentType": 5125,
      "count": 492,
      "type": "SCALAR"
    },
    {
      "bufferView": 2,
      "byteOffset": 1201152,
      "componentType": 5126,
      "count": 1921,
      "max": [
        5.402700901031494,
        8.762399673461914,
        0.528930127620697
      ],
      "min": [
        -12.134594917297363,
        -4.247344017028809,
        -7.5915069580078125
      ],
      "type": "VEC3"
    },
    {
      "bufferView": 2,
      "byteOffset": 1224204,
      "componentType": 5126,
      "count": 1921,
      "type": "VEC3"
    },
    {
      "bufferView": 1,
      "byteOffset": 400384,
      "componentType": 5126,
      "count": 1921,
      "type": "VEC2"
    },
    {
      "bufferView": 0,
      "byteOffset": 306624,
      "componentType": 5125,
      "count": 2622,
      "type": "SCALAR"
    },
    {
      "bufferView": 2,
      "byteOffset": 1247256,
      "componentType": 5126,
      "count": 254,
      "max": [
        3.691427707672119,
        0.9829471111297607,
        -5.859623908996582
      ],
      "min": [
        -3.766512632369995,
        -0.9829480648040771,
        -13.012516975402832
      ],
      "type": "VEC3"
    },
    {
      "bufferView": 2,
      "byteOffset": 1250304,
      "componentType": 5126,
      "count": 254,
      "type": "VEC3"
    },
    {
      "bufferView": 1,
      "byteOffset": 415752,
      "componentType": 5126,
      "count": 254,
      "type": "VEC2"
    },
    {
      "bufferView": 0,
      "byteOffset": 317112,
      "componentType": 5125,
      "count": 492,
      "type": "SCALAR"
    },
    {
      "bufferView": 2,
      "byteOffset": 1253352,
      "componentType": 5126,
      "count": 2887,
      "max": [
        37.46375274658203,
        14.903953552246094,
        28.594303131103516
      ],
      "min": [
        -41.1072998046875,
        -33.77251434326172,
        -28.594303131103516
      ],
      "type": "VEC3"
    },
    {
      "bufferView": 2,
      "byteOffset": 1287996,
      "componentType": 5126,
      "count": 2887,
      "type": "VEC3"
    },
    {
      "bufferView": 1,
      "byteOffset": 417784,
      "componentType": 5126,
      "count": 2887,
      "type": "VEC2"
    },
    {
      "bufferView": 0,
      "byteOffset": 319080,
      "componentType": 5125,
      "count": 7176,
      "type": "SCALAR"
    }
  ],
  "asset": {
    "generator": "fab-model-conversion",
    "version": "2.0"
  },
  "bufferViews": [
    {
      "buffer": 0,
      "byteLength": 347784,
      "target": 34963
    },
    {
      "buffer": 0,
      "byteLength": 440880,
      "byteOffset": 347784,
      "byteStride": 8,
      "target": 34962
    },
    {
      "buffer": 0,
      "byteLength": 1322640,
      "byteOffset": 788664,
      "byteStride": 12,
      "target": 34962
    }
  ],
  "buffers": [
    {
      "byteLength": 2111304,
      "uri": "scene.bin"
    }
  ],
  "extensionsUsed": [
    "KHR_materials_clearcoat"
  ],
  "images": [
    {
      "uri": "textures/Textures_baseColor.png"
    }
  ],
  "materials": [
    {
      "doubleSided": true,
      "extensions": {
        "KHR_materials_clearcoat": {
          "clearcoatFactor": 1,
          "clearcoatRoughnessFactor": 0.04
        }
      },
      "name": "Mat_Wheel",
      "pbrMetallicRoughness": {
        "baseColorFactor": [
          0.19802327142925605,
          0.19802327142925605,
          0.19802327142925605,
          1.0
        ],
        "metallicFactor": 0.894478916507174,
        "roughnessFactor": 0.8929713596497552
      }
    },
    {
      "doubleSided": true,
      "extensions": {
        "KHR_materials_clearcoat": {
          "clearcoatFactor": 0.6140971096292864,
          "clearcoatRoughnessFactor": 0.04
        }
      },
      "name": "Textures",
      "pbrMetallicRoughness": {
        "baseColorTexture": {
          "index": 0
        },
        "metallicFactor": 0.9005741731784325,
        "roughnessFactor": 0.8929713596497552
      }
    },
    {
      "doubleSided": true,
      "extensions": {
        "KHR_materials_clearcoat": {
          "clearcoatFactor": 1,
          "clearcoatRoughnessFactor": 0.04
        }
      },
      "name": "Mat_Body",
      "pbrMetallicRoughness": {
        "baseColorFactor": [
          0.1658370022215208,
          0.732532985489547,
          0.0,
          1.0
        ],
        "roughnessFactor": 0.8929713596497552
      }
    }
  ],
  "meshes": [
    {
      "name": "Wheel_B_Mat Wheel_0",
      "primitives": [
        {
          "attributes": {
            "NORMAL": 1,
            "POSITION": 0,
            "TEXCOORD_0": 2
          },
          "indices": 3,
          "material": 0,
          "mode": 4
        }
      ]
    },
    {
      "name": "Wheel_B_Textures_0",
      "primitives": [
        {
          "attributes": {
            "NORMAL": 5,
            "POSITION": 4,
            "TEXCOORD_0": 6
          },
          "indices": 7,
          "material": 1,
          "mode": 4
        }
      ]
    },
    {
      "name": "Wheel_F_Mat Wheel_0",
      "primitives": [
        {
          "attributes": {
            "NORMAL": 9,
            "POSITION": 8,
            "TEXCOORD_0": 10
          },
          "indices": 11,
          "material": 0,
          "mode": 4
        }
      ]
    },
    {
      "name": "Wheel_F_Textures_0",
      "primitives": [
        {
          "attributes": {
            "NORMAL": 13,
            "POSITION": 12,
            "TEXCOORD_0": 14
          },
          "indices": 15,
          "material": 1,
          "mode": 4
        }
      ]
    },
    {
      "name": "Body_Textures_0",
      "primitives": [
        {
          "attributes": {
            "NORMAL": 17,
            "POSITION": 16,
            "TEXCOORD_0": 18
          },
          "indices": 19,
          "material": 1,
          "mode": 4
        }
      ]
    },
    {
      "name": "Body_Mat Body_0",
      "primitives": [
        {
          "attributes": {
            "NORMAL": 21,
            "POSITION": 20,
            "TEXCOORD_0": 22
          },
          "indices": 23,
          "material": 2,
          "mode": 4
        }
      ]
    },
    {
      "name": "Pedal_R_Textures_0",
      "primitives": [
        {
          "attributes": {
            "NORMAL": 25,
            "POSITION": 24,
            "TEXCOORD_0": 26
          },
          "indices": 27,
          "material": 1,
          "mode": 4
        }
      ]
    },
    {
      "name": "Pedal_Textures_0",
      "primitives": [
        {
          "attributes": {
            "NORMAL": 29,
            "POSITION": 28,
            "TEXCOORD_0": 30
          },
          "indices": 31,
          "material": 1,
          "mode": 4
        }
      ]
    },
    {
      "name": "Pedal_L_Textures_0",
      "primitives": [
        {
          "attributes": {
            "NORMAL": 33,
            "POSITION": 32,
            "TEXCOORD_0": 34
          },
          "indices": 35,
          "material": 1,
          "mode": 4
        }
      ]
    },
    {
      "name": "Steer_Textures_0",
      "primitives": [
        {
          "attributes": {
            "NORMAL": 37,
            "POSITION": 36,
            "TEXCOORD_0": 38
          },
          "indices": 39,
          "material": 1,
          "mode": 4
        }
      ]
    }
  ],
  "nodes": [
    {
      "children": [
        1
      ],
      "matrix": [
        1.0,
        0.0,
        0.0,
        0.0,
        0.0,
        2.220446049250313e-16,
        -1.0,
        0.0,
        0.0,
        1.0,
        2.220446049250313e-16,
        0.0,
        0.0,
        0.0,
        0.0,
        1.0
      ],
      "name": "Sketchfab_model"
    },
    {
      "children": [
        2
      ],
      "matrix": [
        0.009999999776482582,
        0.0,
        0.0,
        0.0,
        0.0,
        0.0,
        0.009999999776482582,
        0.0,
        0.0,
        -0.009999999776482582,
        0.0,
        0.0,
        0.0,
        0.0,
        0.0,
        1.0
      ],
      "name": "Low-Poly Bicycle # 5.FBX"
    },
    {
      "children": [
        3,
        7,
        11,
        15,
        18,
        21,
        24
      ],
      "name": "RootNode"
    },
    {
      "children": [
        4
      ],
      "matrix": [
        1.0,
        0.0,
        0.0,
        0.0,
        0.0,
        0.9999999403953419,
        1.6292067101326904e-07,
        0.0,
        0.0,
        -1.6292067101326904e-07,
        0.9999999403953419,
        0.0,
        0.4565465450286865,
        23.366111755371094,
        -34.637760162353516,
        1.0
      ],
      "name": "Wheel_B"
    },
    {
      "children": [
        5,
        6
      ],
      "matrix": [
        6.265528282066622e-17,
        0.0,
        1.02323842048645,
        0.0,
        0.0,
        1.0232458114624,
        -0.0,
        0.0,
        -1.02324557304382,
        0.0,
        6.265572078849067e-17,
        0.0,
        -0.865135252475739,
        -5.00189926242456e-05,
        -0.000102242178400047,
        1.0
      ],
      "name": "Object_4"
    },
    {
      "mesh": 0,
      "name": "Wheel_B_Mat Wheel_0"
    },
    {
      "mesh": 1,
      "name": "Wheel_B_Textures_0"
    },
    {
      "children": [
        8
      ],
      "matrix": [
        1.0,
        0.0,
        0.0,
        0.0,
        0.0,
        0.9999999403953419,
        1.6292067101326904e-07,
        0.0,
        0.0,
        -1.6292067101326904e-07,
        0.9999999403953419,
        0.0,
        -1.251234531402588,
        23.36611557006836,
        52.046241760253906,
        1.0
      ],
      "name": "Wheel_F"
    },
    {
      "children": [
        9,
        10
      ],
      "matrix": [
        6.265528282066622e-17,
        0.0,
        1.02323842048645,
        0.0,
        0.0,
        1.0232458114624,
        -0.0,
        0.0,
        -1.02324557304382,
        0.0,
        6.265572078849067e-17,
        0.0,
        -0.865135133266449,
        -5.00189926242456e-05,
        -0.000102242178400047,
        1.0
      ],
      "name": "Object_8"
    },
    {
      "mesh": 2,
      "name": "Wheel_F_Mat Wheel_0"
    },
    {
      "mesh": 3,
      "name": "Wheel_F_Textures_0"
    },
    {
      "children": [
        12
      ],
      "matrix": [
        1.0,
        0.0,
        0.0,
        0.0,
        0.0,
        0.9999999403953419,
        1.6292067101326904e-07,
        0.0,
        0.0,
        -1.6292067101326904e-07,
        0.9999999403953419,
        0.0,
        -0.2591078281402588,
        0.0,
        4.735630035400391,
        1.0
      ],
      "name": "Body"
    },
    {
      "children": [
        13,
        14
      ],
      "matrix": [
        6.265532661744885e-17,
        0.0,
        1.02323913574219,
        0.0,
        0.0,
        1.02324616909027,
        -0.0,
        0.0,
        -1.02324593067169,
        0.0,
        6.265574268688198e-17,
        0.0,
        2.72970795631409,
        28.0932350158691,
        40.927490234375,
        1.0
      ],
      "name": "Object_12"
    },
    {
      "mesh": 4,
      "name": "Body_Textures_0"
    },
    {
      "mesh": 5,
      "name": "Body_Mat Body_0"
    },
    {
      "children": [
        16
      ],
      "matrix": [
        1.0,
        0.0,
        0.0,
        0.0,
        0.0,
        0.9999999403953419,
        1.6292067101326904e-07,
        0.0,
        0.0,
        -1.6292067101326904e-07,
        0.9999999403953419,
        0.0,
        -7.313320159912109,
        16.966232299804688,
        4.158437252044678,
        1.0
      ],
      "name": "Pedal_R"
    },
    {
      "children": [
        17
      ],
      "matrix": [
        6.265532661744885e-17,
        0.0,
        1.02323913574219,
        0.0,
        0.0,
        1.02324616909027,
        -0.0,
        0.0,
        -1.02324593067169,
        0.0,
        6.265574268688198e-17,
        0.0,
        3.65960931777954,
        3.72527004799394e-08,
        0.0384152196347713,
        1.0
      ],
      "name": "Object_16"
    },
    {
      "mesh": 6,
      "name": "Pedal_R_Textures_0"
    },
    {
      "children": [
        19
      ],
      "matrix": [
        0.9999999999999923,
        -8.742277657347518e-08,
        -8.742277657347522e-08,
        0.0,
        8.742269424308698e-08,
        0.9999999999995527,
        -9.417494272010898e-07,
        0.0,
        8.742285890378589e-08,
        9.41749419558348e-07,
        0.9999999999995527,
        0.0,
        -0.6557803153991699,
        22.170284271240234,
        -3.3356881141662598,
        1.0
      ],
      "name": "Pedal"
    },
    {
      "children": [
        20
      ],
      "matrix": [
        -3.644482633528173e-07,
        0.0037390163251314105,
        -1.0232648487061413,
        0.0,
        1.6622621470596577e-05,
        -1.0232617491503428,
        -0.003739005005254977,
        0.0,
        -1.0232516525825133,
        -1.6623567179667266e-05,
        3.037009422173045e-07,
        0.0,
        -3.61339402198792,
        2.32264709472656,
        -3.43572402000427,
        1.0
      ],
      "name": "Object_19"
    },
    {
      "mesh": 7,
      "name": "Pedal_Textures_0"
    },
    {
      "children": [
        22
      ],
      "matrix": [
        1.0,
        0.0,
        0.0,
        0.0,
        0.0,
        0.9999999403953419,
        1.6292067101326904e-07,
        0.0,
        0.0,
        -1.6292067101326904e-07,
        0.9999999403953419,
        0.0,
        6.001774787902832,
        27.451440811157227,
        -10.86571216583252,
        1.0
      ],
      "name": "Pedal_L"
    },
    {
      "children": [
        23
      ],
      "matrix": [
        6.265532661744885e-17,
        0.0,
        1.02323913574219,
        0.0,
        0.0,
        1.02324616909027,
        -0.0,
        0.0,
        -1.02324593067169,
        0.0,
        6.265574268688198e-17,
        0.0,
        -9.65548706054688,
        -1.49011105676777e-08,
        0.0384176485240459,
        1.0
      ],
      "name": "Object_22"
    },
    {
      "mesh": 8,
      "name": "Pedal_L_Textures_0"
    },
    {
      "children": [
        25
      ],
      "matrix": [
        1.0,
        -1.7763568394002595e-15,
        -9.860761315262648e-32,
        0.0,
        1.5299007466591738e-15,
        0.861257554071008,
        -0.508168697929757,
        0.0,
        9.026889421366482e-16,
        0.508168697929757,
        0.861257554071008,
        0.0,
        -0.4085852801799774,
        60.735652923583984,
        29.03916358947754,
        1.0
      ],
      "name": "Steer"
    },
    {
      "children": [
        26
      ],
      "matrix": [
        3.183971528916332e-17,
        0.5199820113249202,
        -0.8812782934217797,
        0.0,
        -8.693067761327098e-18,
        0.8812826055566508,
        0.51998455562061,
        0.0,
        1.02324974536896,
        -8.693055608364625e-18,
        3.1839826570005325e-17,
        0.0,
        1.84810278369696e-06,
        4.73751020431519,
        -17.2547836303711,
        1.0
      ],
      "name": "Object_25"
    },
    {
      "mesh": 9,
      "name": "Steer_Textures_0"
    }
  ],
  "samplers": [
    {
      "magFilter": 9729,
      "minFilter": 9987,
      "wrapS": 10497,
      "wrapT": 10497
    }
  ],
  "scene": 0,
  "scenes": [
    {
      "name": "Sketchfab_Scene",
      "nodes": [
        0
      ]
    }
  ],
  "textures": [
    {
      "sampler": 0,
      "source": 0
    }
  ],
  "images": [
    {
      "uri": "textures/Textures_baseColor.png"
    }
  ]
}
